External Loads File
version=1
nRows=62
nColumns=13
Range=5.000000e-03-10 seconds
endheader
time 	forceRightX 	forceRightY 	forceRightZ 	pointRightX 	pointRightY 	pointRightZ 	forceLeftX 	forceLeftY 	forceLeftZ 	pointLeftX 	pointLeftY 	pointLeftZ 		
7.505000 -65.616511 150.352911 -0.000000 0.395048 0.473929 -0.125835 146.633021 132.241430 -0.000000 0.209332 0.178291 -0.362810
7.510000 -67.717500 169.441514 -0.000000 0.401388 0.467816 -0.125655 144.220507 119.422090 -0.000000 0.201889 0.184699 -0.362563
7.515000 -69.837130 190.532010 -0.000000 0.407663 0.460725 -0.125330 141.618359 106.834007 -0.000000 0.194861 0.191654 -0.362376
7.520000 -72.286389 213.043799 -0.000000 0.413542 0.453272 -0.125090 138.790421 94.848606 -0.000000 0.188271 0.199116 -0.362200
7.525000 -74.858171 236.383897 -0.000000 0.419179 0.445100 -0.124960 136.012670 83.468712 -0.000000 0.182151 0.207035 -0.362032
7.530000 -77.770376 259.688060 -0.000000 0.424355 0.436561 -0.124764 133.345997 72.996680 -0.000000 0.176548 0.215398 -0.361933
7.535000 -80.768976 282.252309 -0.000000 0.429174 0.427446 -0.124628 130.996370 63.438287 -0.000000 0.171402 0.224142 -0.362109
7.540000 -83.755079 303.477556 -0.000000 0.433853 0.417807 -0.124677 129.049821 54.838043 -0.000000 0.166857 0.233238 -0.362152
7.545000 -87.242281 322.855689 -0.000000 0.438150 0.408117 -0.124853 127.435257 47.405039 -0.000000 0.162843 0.242545 -0.362134
7.550000 -90.513285 340.476052 -0.000000 0.442540 0.398022 -0.125055 126.227037 40.801665 -0.000000 0.159370 0.252201 -0.362132
7.555000 -94.293169 356.222783 -0.000000 0.445528 0.387592 -0.125270 125.244129 35.286519 -0.000000 0.156391 0.261977 -0.362168
7.560000 -97.980657 370.436677 -0.000000 0.448672 0.377201 -0.125490 124.479036 30.655647 -0.000000 0.154058 0.271877 -0.362133
7.565000 -100.996764 383.510106 -0.000000 0.450969 0.366537 -0.125556 123.918957 26.760456 -0.000000 0.151785 0.282018 -0.361134
7.570000 -103.644477 395.647358 -0.000000 0.452922 0.355747 -0.125589 123.504069 23.715406 -0.000000 0.150614 0.292137 -0.361215
7.575000 -105.395189 407.306220 -0.000000 0.454347 0.344935 -0.125600 123.229453 21.293846 -0.000000 0.150030 0.302418 -0.361267
7.580000 -105.577678 418.983935 -0.000000 0.455134 0.333925 -0.125671 123.063692 19.176393 -0.000000 0.150041 0.312946 -0.361385
7.585000 -104.569198 430.853418 -0.000000 0.455341 0.322882 -0.125755 122.899402 17.332153 -0.000000 0.150571 0.323324 -0.361421
7.590000 -101.678039 443.242383 -0.000000 0.454053 0.311948 -0.125354 122.638386 15.422517 -0.000000 0.151783 0.333882 -0.361577
7.595000 -96.724069 456.197037 -0.000000 0.453067 0.301017 -0.124952 122.104118 13.295504 -0.000000 0.153564 0.344483 -0.361578
7.600000 -88.636165 469.776658 -0.000000 0.451130 0.289486 -0.125500 121.124848 10.603944 -0.000000 0.155932 0.354987 -0.361642
7.605000 -79.572616 483.282155 -0.000000 0.448821 0.278829 -0.125379 119.478058 7.831170 -0.000000 0.158894 0.365429 -0.361688
7.610000 -68.100279 496.626317 -0.000000 0.445903 0.268295 -0.125415 117.054531 4.482602 -0.000000 0.162576 0.375904 -0.361869
7.615000 -55.209216 509.211067 -0.000000 0.443083 0.257705 -0.125916 113.709975 0.669153 -0.000000 0.166834 0.386001 -0.361916
7.620000 -41.058141 520.552684 -0.000000 0.438933 0.247786 -0.125913 109.348852 -3.689599 -0.000000 0.171726 0.395821 -0.361950
7.625000 -25.912020 530.163705 -0.000000 0.434356 0.238073 -0.125871 103.926744 -8.629091 -0.000000 0.177047 0.405398 -0.361923
7.630000 -10.098318 537.606864 -0.000000 0.429375 0.228535 -0.125910 97.456303 -14.160964 -0.000000 0.183063 0.414560 -0.362128
7.635000 5.159550 542.548616 -0.000000 0.424081 0.219653 -0.125882 90.016764 -20.146629 -0.000000 0.189382 0.423465 -0.362200
7.640000 20.839985 544.773664 -0.000000 0.418320 0.210932 -0.125794 81.622986 -26.820163 -0.000000 0.196299 0.432139 -0.361982
7.645000 36.682353 544.071397 -0.000000 0.412018 0.202581 -0.125837 72.311538 -34.103254 -0.000000 0.204168 0.440236 -0.362953
7.650000 50.881060 540.435660 -0.000000 0.405362 0.194884 -0.125793 62.270992 -41.641298 -0.000000 0.211937 0.447862 -0.362516
7.655000 63.888324 533.829648 -0.000000 0.398269 0.187782 -0.125745 51.602952 -49.340335 -0.000000 0.219905 0.454956 -0.362701
7.660000 76.732180 524.135316 -0.000000 0.390747 0.181105 -0.125750 40.298534 -57.064105 -0.000000 0.228631 0.461642 -0.362922
7.665000 87.382170 511.695176 -0.000000 0.383087 0.174930 -0.125686 28.645021 -64.378160 -0.000000 0.237083 0.467796 -0.362911
7.670000 97.295144 496.402640 -0.000000 0.375040 0.169359 -0.125610 16.599268 -71.126902 -0.000000 0.246073 0.473381 -0.363033
7.675000 106.017915 478.457388 -0.000000 0.366804 0.164373 -0.125488 4.384479 -77.056261 -0.000000 0.255364 0.478433 -0.363381
7.680000 113.435351 458.070866 -0.000000 0.358246 0.160008 -0.125433 -7.773965 -82.047432 -0.000000 0.264722 0.482717 -0.363479
7.685000 119.343213 435.562833 -0.000000 0.349819 0.156301 -0.124836 -19.644904 -86.082294 -0.000000 0.274229 0.486451 -0.363654
7.690000 125.699441 410.697546 -0.000000 0.339945 0.153406 -0.125563 -31.484554 -89.021774 -0.000000 0.283824 0.489581 -0.363822
7.695000 130.070156 384.527108 -0.000000 0.330762 0.151009 -0.125498 -42.671996 -90.909877 -0.000000 0.293520 0.492040 -0.364006
7.700000 133.569081 357.103401 -0.000000 0.321284 0.149350 -0.125456 -53.281813 -91.555419 -0.000000 0.303147 0.493859 -0.364172
7.705000 135.910655 328.842655 -0.000000 0.311936 0.148305 -0.125493 -63.052719 -90.861080 -0.000000 0.312738 0.495087 -0.364342
7.710000 137.947543 299.594761 -0.000000 0.301809 0.147869 -0.125352 -72.028161 -88.534755 -0.000000 0.322268 0.495471 -0.364553
7.715000 138.930104 269.790161 -0.000000 0.291492 0.148192 -0.125178 -79.875302 -84.609565 -0.000000 0.331640 0.495395 -0.364592
7.720000 138.285464 239.900765 -0.000000 0.281605 0.149185 -0.125088 -86.387751 -79.206786 -0.000000 0.340743 0.494533 -0.364904
7.725000 135.723690 210.416980 -0.000000 0.272847 0.150821 -0.125157 -91.555253 -72.427851 -0.000000 0.349704 0.493111 -0.365170
7.730000 132.497330 180.916854 -0.000000 0.263295 0.153241 -0.125442 -96.016173 -63.625289 -0.000000 0.358517 0.490601 -0.365736
7.735000 127.352305 152.747005 -0.000000 0.254610 0.156127 -0.125200 -99.618314 -53.252371 -0.000000 0.366672 0.487526 -0.365946
7.740000 121.242010 125.835337 -0.000000 0.245691 0.159685 -0.125196 -102.991216 -40.709658 -0.000000 0.374649 0.483869 -0.366063
7.745000 114.203961 100.826073 -0.000000 0.236569 0.163846 -0.125491 -106.403586 -25.893746 -0.000000 0.382076 0.479477 -0.366324
7.750000 106.303643 78.520808 -0.000000 0.228559 0.168551 -0.125204 -110.117642 -8.936519 -0.000000 0.389076 0.474491 -0.366537
7.755000 98.405989 58.718426 -0.000000 0.220013 0.173910 -0.125446 -114.483149 10.918475 -0.000000 0.395748 0.468738 -0.366855
7.760000 90.581585 42.113835 -0.000000 0.212488 0.179777 -0.125271 -119.664930 33.308677 -0.000000 0.401977 0.462424 -0.367017
7.765000 83.311174 28.547918 -0.000000 0.205193 0.186203 -0.125092 -125.758355 58.457687 -0.000000 0.407676 0.455555 -0.367390
7.770000 76.820449 17.853019 -0.000000 0.198222 0.193107 -0.125176 -132.682937 86.249568 -0.000000 0.413081 0.447858 -0.367600
7.775000 71.183284 9.889100 -0.000000 0.191791 0.200391 -0.125070 -140.422245 116.059200 -0.000000 0.418219 0.439616 -0.367787
7.780000 66.437718 4.320829 -0.000000 0.185902 0.208316 -0.124924 -148.820808 147.222436 -0.000000 0.423052 0.430885 -0.368009
7.785000 62.560131 0.904372 -0.000000 0.180558 0.216427 -0.124828 -157.867048 178.755830 -0.000000 0.427539 0.421665 -0.368201
7.790000 59.515468 -0.675699 -0.000000 0.175732 0.224906 -0.124774 -167.286254 209.940808 -0.000000 0.431853 0.412063 -0.368334
7.795000 57.282799 -0.588354 -0.000000 0.171526 0.233773 -0.124661 -177.091594 239.934078 -0.000000 0.435881 0.402407 -0.368445
7.800000 55.882361 0.898269 -0.000000 0.167838 0.242836 -0.124623 -186.793619 268.460316 -0.000000 0.439689 0.392291 -0.368449
7.805000 55.367813 3.620178 -0.000000 0.164806 0.252184 -0.124514 -196.292483 295.137629 -0.000000 0.443088 0.382046 -0.368515
7.810000 55.789274 7.302986 -0.000000 0.162583 0.261781 -0.124350 -205.199804 319.989553 -0.000000 0.445882 0.371578 -0.368540
